<?xml version="1.0" encoding="UTF-8" standalone="no"?>
<!DOCTYPE svg PUBLIC "-//W3C//DTD SVG 20010904//EN"
"http://www.w3.org/TR/2001/REC-SVG-20010904/DTD/svg10.dtd">
<!-- Created with Inkscape (http://www.inkscape.org/) -->
<svg
   width="64pt"
   height="64pt"
   xmlns="http://www.w3.org/2000/svg"
   xmlns:cc="http://web.resource.org/cc/"
   xmlns:inkscape="http://www.inkscape.org/namespaces/inkscape"
   xmlns:sodipodi="http://sodipodi.sourceforge.net/DTD/sodipodi-0.dtd"
   xmlns:rdf="http://www.w3.org/1999/02/22-rdf-syntax-ns#"
   xmlns:dc="http://purl.org/dc/elements/1.1/"
   xmlns:xlink="http://www.w3.org/1999/xlink"
   id="svg2611"
   sodipodi:version="0.32"
   inkscape:version="0.40"
   sodipodi:docbase="/home/tom/Desktop/Projects/gnome-sudoku/images"
   sodipodi:docname="Footprints.svg">
  <defs
     id="defs3" />
  <sodipodi:namedview
     id="base"
     pagecolor="#ffffff"
     bordercolor="#666666"
     borderopacity="1.0"
     inkscape:pageopacity="0.0"
     inkscape:pageshadow="2"
     inkscape:zoom="5.5000000"
     inkscape:cx="32.000000"
     inkscape:cy="32.000000"
     inkscape:current-layer="svg2611"
     showgrid="true"
     inkscape:grid-bbox="true"
     gridspacingy="1.0000000pt"
     gridspacingx="1.0000000pt"
     gridoriginy="0.0000000pt"
     gridoriginx="0.0000000pt"
     inkscape:window-width="640"
     inkscape:window-height="541"
     inkscape:window-x="5"
     inkscape:window-y="48" />
  <metadata
     id="metadata4">
    <rdf:RDF
       id="RDF5">
      <cc:Work
         rdf:about=""
         id="Work6">
        <dc:format
           id="format7">image/svg+xml</dc:format>
        <dc:type
           id="type9"
           rdf:resource="http://purl.org/dc/dcmitype/StillImage" />
      </cc:Work>
    </rdf:RDF>
  </metadata>
  <g
     id="layer1"
     inkscape:label="Layer 1"
     inkscape:groupmode="layer" />
  <path
     d="M 59.851068,70.542745 C 57.363960,69.499471 53.898639,64.811793 54.168004,62.855034 C 54.716129,58.873275 62.144445,61.436240 64.656829,66.473961 C 65.358557,67.881037 65.741083,69.550061 65.506884,70.182896 C 65.039020,71.447129 62.406385,71.614630 59.851068,70.542745 z M 67.453463,65.955741 C 64.636110,63.497602 64.379164,62.355452 66.643517,62.355452 C 68.434890,62.355452 72.328616,66.235365 71.661120,67.355258 C 70.971700,68.511934 70.020641,68.195600 67.453463,65.955741 z M 74.477302,65.801981 C 72.989720,65.311183 69.754479,62.293665 69.754479,61.396992 C 69.754479,60.102407 72.045054,60.738196 74.152322,62.617686 C 76.351867,64.579481 76.546296,66.484607 74.477302,65.801981 z M 73.580583,60.793335 C 72.558541,59.934167 72.008065,58.933921 72.357305,58.570557 C 73.114843,57.782388 76.967813,59.881646 77.431551,61.335217 C 77.922669,62.874609 75.681227,62.559208 73.580583,60.793335 z M 58.734565,59.423753 C 53.121238,56.906537 49.021413,51.020129 52.043900,49.817488 C 53.737558,49.143583 53.498832,46.542036 51.577923,44.739480 C 50.672251,43.889608 48.305439,42.271727 46.318345,41.144187 C 42.001108,38.694452 41.407294,37.438128 44.220585,36.705976 C 50.207858,35.147808 70.541617,49.995590 70.541617,55.925689 C 70.541617,60.325905 64.643237,62.073412 58.734565,59.423753 z M 73.060455,56.478902 C 70.678094,54.008616 72.635522,53.433204 75.374020,55.798800 C 77.155239,57.337471 77.165383,57.405147 75.618650,57.431173 C 74.731153,57.446109 73.579966,57.017588 73.060455,56.478902 z "
     id="path2691" />
  <path
     d="M 30.692969,52.264517 C 28.911597,51.399469 26.054375,48.125163 26.054375,46.948802 C 26.054375,45.195437 28.817169,44.675258 31.520168,45.919701 C 34.594157,47.334945 36.006493,50.587057 34.203337,52.098097 C 32.873199,53.212749 32.665879,53.222578 30.692969,52.264517 z M 20.913776,48.151320 C 20.577447,47.432612 20.534802,46.537473 20.819014,46.162121 C 21.582192,45.154202 24.198938,46.727585 24.198938,48.194382 C 24.198938,49.857325 21.696776,49.824524 20.913776,48.151320 z M 15.425228,47.092271 C 15.131669,46.464963 15.315768,45.605396 15.834336,45.182126 C 16.941453,44.278467 18.632625,45.425416 18.632625,47.079920 C 18.632625,48.570780 16.121641,48.580450 15.425228,47.092271 z M 10.786633,44.641823 C 10.493075,44.014512 10.677175,43.154948 11.195742,42.731677 C 12.302858,41.828018 13.994032,42.974968 13.994032,44.629470 C 13.994032,46.120331 11.483048,46.130000 10.786633,44.641823 z M 13.994032,41.840922 C 10.452488,39.467922 9.7740550,38.419362 9.5210190,34.927609 C 9.0152410,27.948259 13.967488,23.136375 19.020609,25.697269 C 20.871762,26.635423 20.926259,29.370222 19.112126,30.289615 C 16.788536,31.467200 18.588464,34.531721 22.655225,36.322027 C 25.766548,37.691717 26.518235,38.598790 26.518235,40.983591 C 26.518235,43.624677 26.067239,43.982016 22.343501,44.291370 C 19.428362,44.533549 16.909170,43.794203 13.994032,41.840922 z M 7.5000000,40.881488 C 7.5000000,40.207616 8.1262100,39.656265 8.8915780,39.656265 C 9.6569460,39.656265 10.283156,40.207616 10.283156,40.881488 C 10.283156,41.555362 9.6569460,42.106714 8.8915780,42.106714 C 8.1262100,42.106714 7.5000000,41.555362 7.5000000,40.881488 z "
     id="path2736" />
  <path
     d="M 34.593619,26.001171 C 33.479442,25.634122 31.927045,23.984881 32.047715,23.296448 C 32.293264,21.895566 35.621006,22.797281 36.746506,24.569673 C 37.060867,25.064718 37.232231,25.651920 37.127315,25.874567 C 36.917720,26.319356 35.738350,26.378286 34.593619,26.001171 z M 37.999344,24.387349 C 36.737226,23.522517 36.622117,23.120682 37.636504,23.120682 C 38.439007,23.120682 40.183319,24.485728 39.884292,24.879733 C 39.575447,25.286682 39.149391,25.175388 37.999344,24.387349 z M 41.145889,24.333255 C 40.479480,24.160579 39.030156,23.098942 39.030156,22.783471 C 39.030156,22.328004 40.056289,22.551690 41.000305,23.212942 C 41.985659,23.903148 42.072759,24.573418 41.145889,24.333255 z M 40.744176,22.571089 C 40.286321,22.268813 40.039719,21.916901 40.196171,21.789061 C 40.535534,21.511765 42.261590,22.250337 42.469336,22.761737 C 42.689348,23.303334 41.685225,23.192368 40.744176,22.571089 z M 34.093446,22.089237 C 31.578783,21.203619 29.742141,19.132635 31.096157,18.709518 C 31.854884,18.472420 31.747938,17.557132 30.887408,16.922950 C 30.481684,16.623943 29.421399,16.054732 28.531219,15.658037 C 26.597178,14.796161 26.331162,14.354155 27.591462,14.096567 C 30.273646,13.548364 39.382778,18.772175 39.382778,20.858533 C 39.382778,22.406637 36.740419,23.021452 34.093446,22.089237 z M 40.511170,21.053168 C 39.443918,20.184059 40.320807,19.981614 41.547602,20.813891 C 42.345555,21.355231 42.350098,21.379043 41.657192,21.388200 C 41.259610,21.393454 40.743901,21.242689 40.511170,21.053168 z "
     id="path2737" />
  <path
     d="M 15.154856,13.942063 C 14.184913,13.698009 12.629179,12.774237 12.629179,12.442354 C 12.629179,11.947683 14.133498,11.800926 15.605259,12.152017 C 17.279023,12.551297 18.048029,13.468807 17.066222,13.895112 C 16.341974,14.209586 16.229091,14.212357 15.154856,13.942063 z M 9.8301632,12.781618 C 9.6470358,12.578851 9.6238160,12.326307 9.7785663,12.220411 C 10.194111,11.936049 11.618908,12.379943 11.618908,12.793767 C 11.618908,13.262929 10.256501,13.253675 9.8301632,12.781618 z M 6.8416934,12.482832 C 6.6818531,12.305851 6.7820941,12.063343 7.0644495,11.943928 C 7.6672653,11.688981 8.5880954,12.012566 8.5880954,12.479346 C 8.5880954,12.899960 7.2208853,12.902687 6.8416934,12.482832 z M 4.3160161,11.791494 C 4.1561758,11.614512 4.2564159,11.372005 4.5387723,11.252589 C 5.1415882,10.997643 6.0624183,11.321228 6.0624183,11.788009 C 6.0624183,12.208621 4.6952080,12.211348 4.3160161,11.791494 z M 6.0624183,11.001281 C 4.1340773,10.331795 3.7646756,10.035968 3.6268981,9.0508490 C 3.3515065,7.0817850 6.0479671,5.7242210 8.7993492,6.4467180 C 9.8072874,6.7113990 9.8369612,7.4829590 8.8491803,7.7423440 C 7.5840028,8.0745730 8.5640496,8.9391580 10.778369,9.4442520 C 12.472459,9.8306790 12.881747,10.086589 12.881747,10.759406 C 12.881747,11.504529 12.636183,11.605344 10.608638,11.692621 C 9.0213675,11.760945 7.6496877,11.552357 6.0624183,11.001281 z M 2.5264708,10.730600 C 2.5264708,10.540483 2.8674366,10.384931 3.2841732,10.384931 C 3.7009100,10.384931 4.0418757,10.540483 4.0418757,10.730600 C 4.0418757,10.920718 3.7009100,11.076271 3.2841732,11.076271 C 2.8674366,11.076271 2.5264708,10.920718 2.5264708,10.730600 z "
     id="path2738" />
  <path
     d="M 34.593619,26.001171 C 33.479442,25.634122 31.927045,23.984881 32.047715,23.296448 C 32.293264,21.895566 35.621006,22.797281 36.746506,24.569673 C 37.060867,25.064718 37.232231,25.651920 37.127315,25.874567 C 36.917720,26.319356 35.738350,26.378286 34.593619,26.001171 z M 37.999344,24.387349 C 36.737226,23.522517 36.622117,23.120682 37.636504,23.120682 C 38.439007,23.120682 40.183319,24.485728 39.884292,24.879733 C 39.575447,25.286682 39.149391,25.175388 37.999344,24.387349 z M 41.145889,24.333255 C 40.479480,24.160579 39.030156,23.098942 39.030156,22.783471 C 39.030156,22.328004 40.056289,22.551690 41.000305,23.212942 C 41.985659,23.903148 42.072759,24.573418 41.145889,24.333255 z M 40.744176,22.571089 C 40.286321,22.268813 40.039719,21.916901 40.196171,21.789061 C 40.535534,21.511765 42.261590,22.250337 42.469336,22.761737 C 42.689348,23.303334 41.685225,23.192368 40.744176,22.571089 z M 34.093446,22.089237 C 31.578783,21.203619 29.742141,19.132635 31.096157,18.709518 C 31.854884,18.472420 31.747938,17.557132 30.887408,16.922950 C 30.481684,16.623943 29.421399,16.054732 28.531219,15.658037 C 26.597178,14.796161 26.331162,14.354155 27.591462,14.096567 C 30.273646,13.548364 39.382778,18.772175 39.382778,20.858533 C 39.382778,22.406637 36.740419,23.021452 34.093446,22.089237 z M 40.511170,21.053168 C 39.443918,20.184059 40.320807,19.981614 41.547602,20.813891 C 42.345555,21.355231 42.350098,21.379043 41.657192,21.388200 C 41.259610,21.393454 40.743901,21.242689 40.511170,21.053168 z "
     id="path2739" />
  <path
     d="M 15.154856,13.942063 C 14.184913,13.698009 12.629179,12.774237 12.629179,12.442354 C 12.629179,11.947683 14.133498,11.800926 15.605259,12.152017 C 17.279023,12.551297 18.048029,13.468807 17.066222,13.895112 C 16.341974,14.209586 16.229091,14.212357 15.154856,13.942063 z M 9.8301632,12.781618 C 9.6470358,12.578851 9.6238160,12.326307 9.7785663,12.220411 C 10.194111,11.936049 11.618908,12.379943 11.618908,12.793767 C 11.618908,13.262929 10.256501,13.253675 9.8301632,12.781618 z M 6.8416934,12.482832 C 6.6818531,12.305851 6.7820941,12.063343 7.0644495,11.943928 C 7.6672653,11.688981 8.5880954,12.012566 8.5880954,12.479346 C 8.5880954,12.899960 7.2208853,12.902687 6.8416934,12.482832 z M 4.3160161,11.791494 C 4.1561758,11.614512 4.2564159,11.372005 4.5387723,11.252589 C 5.1415882,10.997643 6.0624183,11.321228 6.0624183,11.788009 C 6.0624183,12.208621 4.6952080,12.211348 4.3160161,11.791494 z M 6.0624183,11.001281 C 4.1340773,10.331795 3.7646756,10.035968 3.6268981,9.0508490 C 3.3515065,7.0817850 6.0479671,5.7242210 8.7993492,6.4467180 C 9.8072874,6.7113990 9.8369612,7.4829590 8.8491803,7.7423440 C 7.5840028,8.0745730 8.5640496,8.9391580 10.778369,9.4442520 C 12.472459,9.8306790 12.881747,10.086589 12.881747,10.759406 C 12.881747,11.504529 12.636183,11.605344 10.608638,11.692621 C 9.0213675,11.760945 7.6496877,11.552357 6.0624183,11.001281 z M 2.5264708,10.730600 C 2.5264708,10.540483 2.8674366,10.384931 3.2841732,10.384931 C 3.7009100,10.384931 4.0418757,10.540483 4.0418757,10.730600 C 4.0418757,10.920718 3.7009100,11.076271 3.2841732,11.076271 C 2.8674366,11.076271 2.5264708,10.920718 2.5264708,10.730600 z "
     id="path2740" />
</svg>
