<?xml version="1.0" encoding="UTF-8" standalone="no"?>
<!DOCTYPE svg PUBLIC "-//W3C//DTD SVG 20010904//EN"
"http://www.w3.org/TR/2001/REC-SVG-20010904/DTD/svg10.dtd">
<!-- Created with Inkscape (http://www.inkscape.org/) -->
<svg
   width="48pt"
   height="48pt"
   xmlns="http://www.w3.org/2000/svg"
   xmlns:cc="http://web.resource.org/cc/"
   xmlns:inkscape="http://www.inkscape.org/namespaces/inkscape"
   xmlns:sodipodi="http://sodipodi.sourceforge.net/DTD/sodipodi-0.dtd"
   xmlns:rdf="http://www.w3.org/1999/02/22-rdf-syntax-ns#"
   xmlns:dc="http://purl.org/dc/elements/1.1/"
   xmlns:xlink="http://www.w3.org/1999/xlink"
   id="svg1779"
   sodipodi:version="0.32"
   inkscape:version="0.40"
   sodipodi:docbase="/home/tom/Desktop/Projects/gnome-sudoku/images"
   sodipodi:docname="Footsteps.svg">
  <defs
     id="defs3" />
  <sodipodi:namedview
     id="base"
     pagecolor="#ffffff"
     bordercolor="#666666"
     borderopacity="1.0"
     inkscape:pageopacity="0.0"
     inkscape:pageshadow="2"
     inkscape:zoom="1.0000000"
     inkscape:cx="22.317719"
     inkscape:cy="30.796555"
     inkscape:current-layer="svg1779"
     showgrid="true"
     inkscape:grid-bbox="true"
     gridspacingy="1.0000000pt"
     gridspacingx="1.0000000pt"
     gridoriginy="0.0000000pt"
     gridoriginx="0.0000000pt"
     inkscape:window-width="640"
     inkscape:window-height="541"
     inkscape:window-x="0"
     inkscape:window-y="48" />
  <metadata
     id="metadata4">
    <rdf:RDF
       id="RDF5">
      <cc:Work
         rdf:about=""
         id="Work6">
        <dc:format
           id="format7">image/svg+xml</dc:format>
        <dc:type
           id="type9"
           rdf:resource="http://purl.org/dc/dcmitype/StillImage" />
      </cc:Work>
    </rdf:RDF>
  </metadata>
  <g
     id="layer1"
     inkscape:label="Layer 1"
     inkscape:groupmode="layer" />
  <g
     id="g1900"
     transform="matrix(3.476370e-2,-2.036503e-2,-2.007084e-2,-3.527326e-2,21.96551,49.06371)">
    <path
       d="M 257.87400,274.39400 C 337.04000,266.06100 323.74300,143.26200 259.95700,109.81100 C 217.69800,87.649000 160.64600,88.617000 122.45700,103.56100 C 50.020000,131.90600 30.791000,168.14400 20.374000,238.97800 C 9.9570000,309.81200 44.860000,497.18200 128.70700,518.14400 C 203.70700,536.89400 232.65100,500.53700 224.54000,466.06100 C 216.20700,430.64400 175.13200,384.76600 172.45700,353.56100 C 166.20700,280.64400 257.87400,274.39400 257.87400,274.39400 z "
       id="path1854" />
    <path
       d="M 398.93500,101.50400 C 377.72800,132.30400 337.48900,141.40300 309.05900,121.82800 C 280.62800,102.25300 274.77200,61.416000 295.97900,30.616000 C 317.18600,-0.18400000 357.42400,-9.2820000 385.85500,10.293000 C 414.28400,29.868000 420.14100,70.705000 398.93500,101.50400 z "
       id="path1855" />
    <path
       d="M 235.45400,82.105000 C 217.30500,85.195000 200.16600,73.450000 197.17200,55.869000 C 194.17700,38.288000 205.76300,11.863000 223.91100,8.7730000 C 242.05900,5.6810000 259.19900,17.428000 262.19300,35.009000 C 265.18700,52.590000 253.60100,79.014000 235.45400,82.105000 z "
       id="path1856" />
    <path
       d="M 176.59900,69.410000 C 166.32300,83.986000 151.26500,86.791000 136.21900,76.184000 C 121.17300,65.577000 117.63400,35.326000 127.91000,20.749000 C 138.18600,6.1740000 153.24300,3.3690000 168.29000,13.976000 C 183.33600,24.583000 186.87500,54.834000 176.59900,69.410000 z "
       id="path1857" />
    <path
       d="M 113.75100,80.360000 C 110.59400,95.569000 94.793000,105.15000 78.457000,101.75900 C 62.121000,98.368000 48.841000,75.304000 51.998000,60.095000 C 55.155000,44.886000 70.956000,35.305000 87.291000,38.696000 C 103.62600,42.087000 116.90800,65.151000 113.75100,80.360000 z "
       id="path1858" />
    <path
       d="M 47.389000,102.13800 C 56.680000,115.99500 54.914000,133.46200 43.446000,141.15100 C 31.978000,148.83900 15.150000,143.83900 5.8590000,129.98100 C -3.4310000,116.12400 -1.6650000,98.657000 9.8030000,90.969000 C 21.271000,83.281000 38.099000,88.281000 47.389000,102.13800 z "
       id="path1859" />
  </g>
  <g
     id="g1907"
     transform="matrix(-3.424270e-2,3.474458e-2,-3.424267e-2,-3.474462e-2,63.43147,46.22247)">
    <path
       d="M 257.87400,274.39400 C 337.04000,266.06100 323.74300,143.26200 259.95700,109.81100 C 217.69800,87.649000 160.64600,88.617000 122.45700,103.56100 C 50.020000,131.90600 30.791000,168.14400 20.374000,238.97800 C 9.9570000,309.81200 44.860000,497.18200 128.70700,518.14400 C 203.70700,536.89400 232.65100,500.53700 224.54000,466.06100 C 216.20700,430.64400 175.13200,384.76600 172.45700,353.56100 C 166.20700,280.64400 257.87400,274.39400 257.87400,274.39400 z "
       id="path1908" />
    <path
       d="M 398.93500,101.50400 C 377.72800,132.30400 337.48900,141.40300 309.05900,121.82800 C 280.62800,102.25300 274.77200,61.416000 295.97900,30.616000 C 317.18600,-0.18400000 357.42400,-9.2820000 385.85500,10.293000 C 414.28400,29.868000 420.14100,70.705000 398.93500,101.50400 z "
       id="path1909" />
    <path
       d="M 235.45400,82.105000 C 217.30500,85.195000 200.16600,73.450000 197.17200,55.869000 C 194.17700,38.288000 205.76300,11.863000 223.91100,8.7730000 C 242.05900,5.6810000 259.19900,17.428000 262.19300,35.009000 C 265.18700,52.590000 253.60100,79.014000 235.45400,82.105000 z "
       id="path1910" />
    <path
       d="M 176.59900,69.410000 C 166.32300,83.986000 151.26500,86.791000 136.21900,76.184000 C 121.17300,65.577000 117.63400,35.326000 127.91000,20.749000 C 138.18600,6.1740000 153.24300,3.3690000 168.29000,13.976000 C 183.33600,24.583000 186.87500,54.834000 176.59900,69.410000 z "
       id="path1911" />
    <path
       d="M 113.75100,80.360000 C 110.59400,95.569000 94.793000,105.15000 78.457000,101.75900 C 62.121000,98.368000 48.841000,75.304000 51.998000,60.095000 C 55.155000,44.886000 70.956000,35.305000 87.291000,38.696000 C 103.62600,42.087000 116.90800,65.151000 113.75100,80.360000 z "
       id="path1912" />
    <path
       d="M 47.389000,102.13800 C 56.680000,115.99500 54.914000,133.46200 43.446000,141.15100 C 31.978000,148.83900 15.150000,143.83900 5.8590000,129.98100 C -3.4310000,116.12400 -1.6650000,98.657000 9.8030000,90.969000 C 21.271000,83.281000 38.099000,88.281000 47.389000,102.13800 z "
       id="path1913" />
  </g>
  <g
     id="g1936"
     transform="matrix(-1.978448e-2,2.007445e-2,-1.978446e-2,-2.007448e-2,35.51026,18.11540)">
    <path
       d="M 257.87400,274.39400 C 337.04000,266.06100 323.74300,143.26200 259.95700,109.81100 C 217.69800,87.649000 160.64600,88.617000 122.45700,103.56100 C 50.020000,131.90600 30.791000,168.14400 20.374000,238.97800 C 9.9570000,309.81200 44.860000,497.18200 128.70700,518.14400 C 203.70700,536.89400 232.65100,500.53700 224.54000,466.06100 C 216.20700,430.64400 175.13200,384.76600 172.45700,353.56100 C 166.20700,280.64400 257.87400,274.39400 257.87400,274.39400 z "
       id="path1937" />
    <path
       d="M 398.93500,101.50400 C 377.72800,132.30400 337.48900,141.40300 309.05900,121.82800 C 280.62800,102.25300 274.77200,61.416000 295.97900,30.616000 C 317.18600,-0.18400000 357.42400,-9.2820000 385.85500,10.293000 C 414.28400,29.868000 420.14100,70.705000 398.93500,101.50400 z "
       id="path1938" />
    <path
       d="M 235.45400,82.105000 C 217.30500,85.195000 200.16600,73.450000 197.17200,55.869000 C 194.17700,38.288000 205.76300,11.863000 223.91100,8.7730000 C 242.05900,5.6810000 259.19900,17.428000 262.19300,35.009000 C 265.18700,52.590000 253.60100,79.014000 235.45400,82.105000 z "
       id="path1939" />
    <path
       d="M 176.59900,69.410000 C 166.32300,83.986000 151.26500,86.791000 136.21900,76.184000 C 121.17300,65.577000 117.63400,35.326000 127.91000,20.749000 C 138.18600,6.1740000 153.24300,3.3690000 168.29000,13.976000 C 183.33600,24.583000 186.87500,54.834000 176.59900,69.410000 z "
       id="path1940" />
    <path
       d="M 113.75100,80.360000 C 110.59400,95.569000 94.793000,105.15000 78.457000,101.75900 C 62.121000,98.368000 48.841000,75.304000 51.998000,60.095000 C 55.155000,44.886000 70.956000,35.305000 87.291000,38.696000 C 103.62600,42.087000 116.90800,65.151000 113.75100,80.360000 z "
       id="path1941" />
    <path
       d="M 47.389000,102.13800 C 56.680000,115.99500 54.914000,133.46200 43.446000,141.15100 C 31.978000,148.83900 15.150000,143.83900 5.8590000,129.98100 C -3.4310000,116.12400 -1.6650000,98.657000 9.8030000,90.969000 C 21.271000,83.281000 38.099000,88.281000 47.389000,102.13800 z "
       id="path1942" />
  </g>
  <g
     id="g1943"
     transform="matrix(1.672912e-2,-9.800139e-3,-9.658566e-3,-1.697433e-2,8.351971,20.73245)">
    <path
       d="M 257.87400,274.39400 C 337.04000,266.06100 323.74300,143.26200 259.95700,109.81100 C 217.69800,87.649000 160.64600,88.617000 122.45700,103.56100 C 50.020000,131.90600 30.791000,168.14400 20.374000,238.97800 C 9.9570000,309.81200 44.860000,497.18200 128.70700,518.14400 C 203.70700,536.89400 232.65100,500.53700 224.54000,466.06100 C 216.20700,430.64400 175.13200,384.76600 172.45700,353.56100 C 166.20700,280.64400 257.87400,274.39400 257.87400,274.39400 z "
       id="path1944" />
    <path
       d="M 398.93500,101.50400 C 377.72800,132.30400 337.48900,141.40300 309.05900,121.82800 C 280.62800,102.25300 274.77200,61.416000 295.97900,30.616000 C 317.18600,-0.18400000 357.42400,-9.2820000 385.85500,10.293000 C 414.28400,29.868000 420.14100,70.705000 398.93500,101.50400 z "
       id="path1945" />
    <path
       d="M 235.45400,82.105000 C 217.30500,85.195000 200.16600,73.450000 197.17200,55.869000 C 194.17700,38.288000 205.76300,11.863000 223.91100,8.7730000 C 242.05900,5.6810000 259.19900,17.428000 262.19300,35.009000 C 265.18700,52.590000 253.60100,79.014000 235.45400,82.105000 z "
       id="path1946" />
    <path
       d="M 176.59900,69.410000 C 166.32300,83.986000 151.26500,86.791000 136.21900,76.184000 C 121.17300,65.577000 117.63400,35.326000 127.91000,20.749000 C 138.18600,6.1740000 153.24300,3.3690000 168.29000,13.976000 C 183.33600,24.583000 186.87500,54.834000 176.59900,69.410000 z "
       id="path1947" />
    <path
       d="M 113.75100,80.360000 C 110.59400,95.569000 94.793000,105.15000 78.457000,101.75900 C 62.121000,98.368000 48.841000,75.304000 51.998000,60.095000 C 55.155000,44.886000 70.956000,35.305000 87.291000,38.696000 C 103.62600,42.087000 116.90800,65.151000 113.75100,80.360000 z "
       id="path1948" />
    <path
       d="M 47.389000,102.13800 C 56.680000,115.99500 54.914000,133.46200 43.446000,141.15100 C 31.978000,148.83900 15.150000,143.83900 5.8590000,129.98100 C -3.4310000,116.12400 -1.6650000,98.657000 9.8030000,90.969000 C 21.271000,83.281000 38.099000,88.281000 47.389000,102.13800 z "
       id="path1949" />
  </g>
  <g
     id="g1950"
     transform="matrix(-7.884979e-3,8.000541e-3,-7.884967e-3,-8.000553e-3,13.29016,4.484338)">
    <path
       d="M 257.87400,274.39400 C 337.04000,266.06100 323.74300,143.26200 259.95700,109.81100 C 217.69800,87.649000 160.64600,88.617000 122.45700,103.56100 C 50.020000,131.90600 30.791000,168.14400 20.374000,238.97800 C 9.9570000,309.81200 44.860000,497.18200 128.70700,518.14400 C 203.70700,536.89400 232.65100,500.53700 224.54000,466.06100 C 216.20700,430.64400 175.13200,384.76600 172.45700,353.56100 C 166.20700,280.64400 257.87400,274.39400 257.87400,274.39400 z "
       id="path1951" />
    <path
       d="M 398.93500,101.50400 C 377.72800,132.30400 337.48900,141.40300 309.05900,121.82800 C 280.62800,102.25300 274.77200,61.416000 295.97900,30.616000 C 317.18600,-0.18400000 357.42400,-9.2820000 385.85500,10.293000 C 414.28400,29.868000 420.14100,70.705000 398.93500,101.50400 z "
       id="path1952" />
    <path
       d="M 235.45400,82.105000 C 217.30500,85.195000 200.16600,73.450000 197.17200,55.869000 C 194.17700,38.288000 205.76300,11.863000 223.91100,8.7730000 C 242.05900,5.6810000 259.19900,17.428000 262.19300,35.009000 C 265.18700,52.590000 253.60100,79.014000 235.45400,82.105000 z "
       id="path1953" />
    <path
       d="M 176.59900,69.410000 C 166.32300,83.986000 151.26500,86.791000 136.21900,76.184000 C 121.17300,65.577000 117.63400,35.326000 127.91000,20.749000 C 138.18600,6.1740000 153.24300,3.3690000 168.29000,13.976000 C 183.33600,24.583000 186.87500,54.834000 176.59900,69.410000 z "
       id="path1954" />
    <path
       d="M 113.75100,80.360000 C 110.59400,95.569000 94.793000,105.15000 78.457000,101.75900 C 62.121000,98.368000 48.841000,75.304000 51.998000,60.095000 C 55.155000,44.886000 70.956000,35.305000 87.291000,38.696000 C 103.62600,42.087000 116.90800,65.151000 113.75100,80.360000 z "
       id="path1955" />
    <path
       d="M 47.389000,102.13800 C 56.680000,115.99500 54.914000,133.46200 43.446000,141.15100 C 31.978000,148.83900 15.150000,143.83900 5.8590000,129.98100 C -3.4310000,116.12400 -1.6650000,98.657000 9.8030000,90.969000 C 21.271000,83.281000 38.099000,88.281000 47.389000,102.13800 z "
       id="path1956" />
  </g>
</svg>
