<?xml version="1.0" encoding="UTF-8" standalone="no"?>
<!DOCTYPE svg PUBLIC "-//W3C//DTD SVG 20010904//EN"
"http://www.w3.org/TR/2001/REC-SVG-20010904/DTD/svg10.dtd">
<!-- Created with Inkscape (http://www.inkscape.org/) -->
<svg
   width="64pt"
   height="64pt"
   xmlns="http://www.w3.org/2000/svg"
   xmlns:cc="http://web.resource.org/cc/"
   xmlns:inkscape="http://www.inkscape.org/namespaces/inkscape"
   xmlns:sodipodi="http://sodipodi.sourceforge.net/DTD/sodipodi-0.dtd"
   xmlns:rdf="http://www.w3.org/1999/02/22-rdf-syntax-ns#"
   xmlns:dc="http://purl.org/dc/elements/1.1/"
   xmlns:xlink="http://www.w3.org/1999/xlink"
   id="svg1132"
   sodipodi:version="0.32"
   inkscape:version="0.40"
   sodipodi:docbase="/home/tom/Desktop/Projects/gnome-sudoku/images"
   sodipodi:docname="Sudoku Thinker.svg">
  <defs
     id="defs3" />
  <sodipodi:namedview
     id="base"
     pagecolor="#ffffff"
     bordercolor="#666666"
     borderopacity="1.0"
     inkscape:pageopacity="0.0"
     inkscape:pageshadow="2"
     inkscape:zoom="0.50000000"
     inkscape:cx="47.785156"
     inkscape:cy="37.053223"
     inkscape:current-layer="layer1"
     showgrid="true"
     inkscape:grid-bbox="true"
     gridspacingy="1.0000000pt"
     gridspacingx="1.0000000pt"
     gridoriginy="0.0000000pt"
     gridoriginx="0.0000000pt"
     inkscape:window-width="1024"
     inkscape:window-height="696"
     inkscape:window-x="0"
     inkscape:window-y="25" />
  <metadata
     id="metadata4">
    <rdf:RDF
       id="RDF5">
      <cc:Work
         rdf:about=""
         id="Work6">
        <dc:format
           id="format7">image/svg+xml</dc:format>
        <dc:type
           id="type9"
           rdf:resource="http://purl.org/dc/dcmitype/StillImage" />
      </cc:Work>
    </rdf:RDF>
  </metadata>
  <g
     id="layer1"
     inkscape:label="Layer 1"
     inkscape:groupmode="layer">
    <g
       id="g1791"
       transform="matrix(2.042539,0.000000,0.000000,1.886352,-1.318040,-2.021404)">
      <path
         style="fill:#020000;fill-opacity:1.0000000;fill-rule:evenodd;stroke:#ffffff;stroke-width:0.25000000pt;stroke-linecap:butt;stroke-linejoin:miter;stroke-opacity:1.0000000"
         d="M 11.477270,27.542614 C 10.863907,27.861322 0.79545211,20.156250 0.79545211,20.156250 C 1.6287851,26.406250 2.4621181,32.656250 3.2954521,38.906250 C 4.5454521,39.322916 5.7954521,39.739583 7.0454521,40.156250 C 6.6287851,36.822916 9.2803001,37.012310 8.8636341,33.678977 C 10.946967,35.762310 9.9621181,34.322916 12.045452,36.406250 C 12.462118,36.406250 12.878785,36.406250 13.295452,36.406250 C 13.712118,36.822916 14.128785,37.239583 14.545452,37.656250 C 12.462118,36.822916 10.378785,35.989583 8.2954521,35.156250 C 6.6287851,34.739583 8.9393911,35.004734 7.2727251,34.588068 C 7.2727251,36.254734 3.2954521,37.239583 3.2954521,38.906250 C 8.7121181,40.156250 14.128785,41.406250 19.545452,42.656250 C 20.378785,41.822916 21.212118,40.989583 22.045452,40.156250 C 21.212118,36.406250 20.378785,32.656250 19.545452,28.906250 C 19.128785,28.906250 18.712118,28.906250 18.295452,28.906250 C 19.545452,25.572916 20.795452,22.239583 22.045452,18.906250 C 22.045452,20.572916 24.659088,24.512310 23.181816,23.906250 C 23.787876,24.853219 22.007573,28.413825 13.295452,26.406250 C 16.780300,27.277462 13.106058,30.421401 14.545452,31.406250 C 18.712118,29.739583 21.628785,31.709280 27.045452,26.406250 C 28.939391,29.019886 28.333330,21.860795 24.545452,15.156250 C 23.295452,14.739583 22.045452,14.322916 20.795452,13.906250 C 18.295452,13.906250 15.795452,13.906250 13.295452,13.906250 C 10.492421,17.845643 10.416663,16.216856 8.7499971,16.519886 C 7.9166641,15.572917 12.916663,12.769886 14.999997,11.519886 C 13.181815,12.618370 11.249997,8.2623100 10.909088,7.6562500 C 8.8257541,10.572916 2.1969671,18.792614 8.5227251,21.406250 C 9.7727251,20.572916 14.772725,17.580492 14.545452,20.156250 C 15.909088,19.777462 15.340906,25.535037 11.477270,27.542614 z "
         id="path1142"
         sodipodi:nodetypes="csccccccccccccccccccccccccccs" />
      <path
         sodipodi:type="arc"
         style="color:#000000;fill:#020004;fill-opacity:1.0000000;fill-rule:nonzero;stroke:#ffffff;stroke-width:1.2299556;stroke-linecap:butt;stroke-linejoin:miter;stroke-miterlimit:4.0000000;stroke-dashoffset:0.0000000;stroke-opacity:1.0000000;marker:none;marker-start:none;marker-mid:none;marker-end:none;visibility:visible;display:block"
         id="path1143"
         sodipodi:cx="33.295456"
         sodipodi:cy="26.704546"
         sodipodi:rx="3.9772727"
         sodipodi:ry="5.1136365"
         d="M 37.272729 26.704546 A 3.9772727 5.1136365 0 1 1  29.318183,26.704546 A 3.9772727 5.1136365 0 1 1  37.272729 26.704546 z"
         transform="matrix(0.893626,-0.675626,0.579891,0.954500,-28.67507,6.017376)" />
    </g>
    <path
       style="opacity:0.96276593;fill:none;fill-opacity:1.0000000;fill-rule:evenodd;stroke:#000000;stroke-width:1.5039241pt;stroke-linecap:round;stroke-linejoin:round;stroke-opacity:1.0000000;marker-mid:none"
       d="M 48.305964,14.621802 C 57.033450,15.586469 72.795457,14.621802 82.232774,14.621802"
       id="path1767" />
    <path
       style="opacity:1.0000000;fill:none;fill-opacity:1.0000000;fill-rule:evenodd;stroke:#000000;stroke-width:1.5620184pt;stroke-linecap:round;stroke-linejoin:round;stroke-opacity:1.0000000;marker-mid:none;"
       d="M 45.869432,28.475042 C 55.284201,29.439709 72.287452,28.475042 82.467950,28.475042"
       id="path1768" />
    <path
       style="opacity:0.96276593;fill:none;fill-opacity:1.0000000;fill-rule:evenodd;stroke:#000000;stroke-width:1.7539471pt;stroke-linecap:round;stroke-linejoin:round;stroke-opacity:1.0000000;marker-mid:none"
       d="M 59.426398,48.387925 C 60.391065,36.517389 59.426398,15.078976 59.426398,2.2429771"
       id="path1774" />
    <path
       style="opacity:0.96276593;fill:none;fill-opacity:1.0000000;fill-rule:evenodd;stroke:#000000;stroke-width:1.7539471pt;stroke-linecap:round;stroke-linejoin:round;stroke-opacity:1.0000000;marker-mid:none"
       d="M 75.676398,48.387925 C 76.641065,36.517389 75.676398,15.078976 75.676398,2.2429771"
       id="path1775" />
    <path
       style="opacity:0.96276593;fill:none;fill-opacity:1.0000000;fill-rule:evenodd;stroke:#000000;stroke-width:0.25000000pt;stroke-linecap:round;stroke-linejoin:round;stroke-opacity:1.0000000;marker-mid:none"
       d="M 63.769899,2.1772559 C 62.523874,2.9528541 62.483144,5.0944542 62.844180,7.7985252 C 66.213162,8.4413492 66.609082,8.1199372 68.451356,7.3967602 C 68.451356,5.7300932 68.451356,4.0634269 68.451356,2.3967602 C 68.853121,5.1676222 68.451356,9.0634272 68.451356,12.396760 C 68.290650,10.730093 68.451356,9.0634272 68.451356,7.3967602 C 68.868023,7.3967602 69.766808,6.7539362 70.183474,6.7539362"
       id="path1789"
       sodipodi:nodetypes="ccccccc" />
    <path
       style="opacity:0.96276593;fill:none;fill-opacity:1.0000000;fill-rule:evenodd;stroke:#000000;stroke-width:0.25000000pt;stroke-linecap:round;stroke-linejoin:round;stroke-opacity:1.0000000;marker-mid:none"
       d="M 47.458231,18.890689 C 48.125586,17.589182 53.305551,16.864092 54.701356,18.646760 C 56.549476,22.468057 53.451356,24.896760 53.451356,24.896760 C 53.451356,24.896760 51.031709,26.468172 49.781709,26.468172 C 49.094180,26.628878 47.201356,24.896760 47.201356,24.896760 C 48.421553,23.771817 51.418572,25.649740 51.835239,26.066407 C 53.085239,26.483074 55.534689,26.563427 55.951356,26.146760"
       id="path1790"
       sodipodi:nodetypes="ccccccc" />
  </g>
</svg>
