<?xml version="1.0" encoding="UTF-8" standalone="no"?>
<!DOCTYPE svg PUBLIC "-//W3C//DTD SVG 20010904//EN"
"http://www.w3.org/TR/2001/REC-SVG-20010904/DTD/svg10.dtd">
<!-- Created with Inkscape (http://www.inkscape.org/) -->
<svg
   width="48pt"
   height="48pt"
   xmlns="http://www.w3.org/2000/svg"
   xmlns:cc="http://web.resource.org/cc/"
   xmlns:inkscape="http://www.inkscape.org/namespaces/inkscape"
   xmlns:sodipodi="http://sodipodi.sourceforge.net/DTD/sodipodi-0.dtd"
   xmlns:rdf="http://www.w3.org/1999/02/22-rdf-syntax-ns#"
   xmlns:dc="http://purl.org/dc/elements/1.1/"
   xmlns:xlink="http://www.w3.org/1999/xlink"
   id="svg3768"
   sodipodi:version="0.32"
   inkscape:version="0.40"
   sodipodi:docbase="/home/tom/Desktop/Projects/gnome-sudoku/images"
   sodipodi:docname="sudoku.svg"
   inkscape:export-filename="/home/tom/Desktop/Projects/gnome-sudoku/images/sudoku.png"
   inkscape:export-xdpi="52.602737"
   inkscape:export-ydpi="52.602737">
  <defs
     id="defs3" />
  <sodipodi:namedview
     id="base"
     pagecolor="#ffffff"
     bordercolor="#666666"
     borderopacity="1.0"
     inkscape:pageopacity="0.0"
     inkscape:pageshadow="2"
     inkscape:zoom="1.0000000"
     inkscape:cx="-10.096313"
     inkscape:cy="-26.153412"
     inkscape:current-layer="layer1"
     showgrid="true"
     inkscape:grid-bbox="true"
     gridspacingy="1.0000000pt"
     gridspacingx="1.0000000pt"
     gridoriginy="0.0000000pt"
     gridoriginx="0.0000000pt"
     inkscape:window-width="640"
     inkscape:window-height="541"
     inkscape:window-x="15"
     inkscape:window-y="94" />
  <metadata
     id="metadata4">
    <rdf:RDF
       id="RDF5">
      <cc:Work
         rdf:about=""
         id="Work6">
        <dc:format
           id="format7">image/svg+xml</dc:format>
        <dc:type
           id="type9"
           rdf:resource="http://purl.org/dc/dcmitype/StillImage" />
      </cc:Work>
    </rdf:RDF>
  </metadata>
  <g
     id="layer1"
     inkscape:label="Layer 1"
     inkscape:groupmode="layer">
    <path
       d="M 28.457408,42.328685 C 14.327438,37.766323 2.6829333,33.926300 2.5807270,33.795302 C 2.4034802,33.568139 2.4056250,33.544529 2.6271846,33.284065 C 2.8318035,33.043518 2.7930661,32.988516 2.3019829,32.822270 C 1.6039943,32.585980 1.2103745,32.367331 1.2531621,32.239675 C 1.2713021,32.185546 4.0443026,29.250460 7.4153895,25.717267 C 10.786473,22.184074 16.283289,16.421285 19.630531,12.911068 C 22.977778,9.4008515 25.779147,6.4657564 25.855804,6.3886309 C 25.951999,6.2918518 25.966391,6.3410450 25.902259,6.5474259 C 25.851157,6.7118848 24.849364,7.8584523 23.676054,9.0953550 C 22.502744,10.332258 21.533953,11.370559 21.523184,11.402695 C 21.512414,11.434829 21.835124,11.416198 22.240319,11.361293 C 23.036448,11.253414 23.480612,11.454642 23.391886,11.883008 C 23.319825,12.230920 21.851420,12.233525 21.545337,11.886286 C 21.350792,11.665590 20.719259,12.242196 17.825601,15.282514 L 14.340195,18.944572 L 14.964474,19.149768 C 15.307828,19.262625 17.541272,19.675890 19.927681,20.068129 L 24.266612,20.781291 L 26.292325,17.673559 C 29.197750,13.216213 32.956280,7.3798366 33.007526,7.2459498 C 33.031597,7.1830550 32.989786,7.0155323 32.914614,6.8736786 C 32.825321,6.7051809 33.124239,6.6142814 33.776762,6.6115100 C 34.381656,6.6089395 34.775594,6.7166091 34.775594,6.8845085 C 34.775594,7.0385541 34.527682,7.1617498 34.217694,7.1617498 C 33.695968,7.1617498 33.554393,7.3250889 32.034202,9.6809790 C 31.140129,11.066551 30.408558,12.220577 30.408492,12.245474 C 30.408425,12.270369 30.836991,12.290743 31.360865,12.290743 C 32.563099,12.290743 32.741618,12.812522 31.578207,12.925988 C 31.122768,12.970407 30.632124,12.883995 30.487887,12.733960 C 30.254739,12.491450 30.068235,12.708886 28.807265,14.693302 C 28.027160,15.920968 26.859103,17.718766 26.211581,18.688410 C 25.564060,19.658056 25.013570,20.551333 24.988272,20.673474 C 24.962974,20.795615 27.485116,21.313192 30.593032,21.823643 C 33.700948,22.334100 36.422774,22.849407 36.641534,22.968768 C 36.860296,23.088132 37.088902,23.128985 37.149545,23.059547 C 37.210186,22.990110 37.913045,20.893380 38.711454,18.400140 L 40.163106,13.866981 L 39.676067,13.656669 C 39.265974,13.479578 39.225725,13.414185 39.421316,13.242736 C 39.549075,13.130749 39.827659,13.026681 40.040399,13.011484 C 40.408104,12.985213 40.472568,12.838876 41.346520,10.046515 C 42.057001,7.7764755 42.311960,7.1308998 42.468836,7.2047739 C 42.644847,7.2876636 42.554507,7.6751168 41.789209,10.119637 L 40.906595,12.938905 L 41.209242,13.139240 C 41.473588,13.314215 41.488373,13.367231 41.326063,13.558090 C 41.223857,13.678275 41.029255,13.785377 40.893608,13.796090 C 40.698024,13.811542 40.361545,14.733440 39.267669,18.250922 C 38.509042,20.690356 37.874383,22.811265 37.857316,22.964050 C 37.838476,23.132694 38.093994,23.242333 38.507656,23.243101 C 38.882413,23.243799 40.171597,23.428348 41.372518,23.653216 C 42.573439,23.878080 45.144846,24.312676 47.086762,24.618980 C 52.109595,25.411247 52.527961,25.491434 52.917688,25.736560 C 53.109624,25.857282 53.288300,25.851593 53.314746,25.723921 C 53.354982,25.529650 52.984600,17.562066 52.841721,15.548348 C 52.800308,14.964695 52.748244,14.923296 52.032686,14.905064 C 51.612062,14.894348 51.186526,14.790549 51.087057,14.674400 C 50.919562,14.478815 50.922992,14.449825 51.133516,14.281805 C 51.258536,14.182030 51.679180,14.098686 52.068281,14.096606 L 52.775740,14.092821 L 52.606677,11.389701 C 52.513691,9.9029859 52.435752,8.5306350 52.433478,8.3400314 C 52.430456,8.0868564 52.180464,7.9934780 51.505681,7.9934780 C 50.990134,7.9934780 50.556650,7.8709795 50.524596,7.7162368 C 50.487575,7.5375000 50.849497,7.4389925 51.543165,7.4389925 C 52.571288,7.4389925 52.623026,7.4667430 52.706146,8.0627886 C 52.816337,8.8529198 53.844194,26.144357 53.847402,27.261856 C 53.848713,27.719309 54.120133,32.989526 54.450556,38.973446 C 54.780979,44.957374 55.027145,50.041313 54.997594,50.271094 C 54.960292,50.561158 54.822249,50.678940 54.546061,50.656390 C 54.327271,50.638515 42.587377,46.891049 28.457408,42.328685 z M 54.377520,48.263002 C 54.375861,47.996156 54.134396,42.974596 53.840935,37.103978 L 53.307371,26.430128 L 52.798672,26.368949 C 51.524823,26.215740 48.371590,25.685585 47.319046,25.447653 C 46.221923,25.199643 42.621027,24.603490 39.746518,24.193969 C 39.031075,24.092043 38.238106,23.912879 37.984364,23.795832 C 37.547403,23.594267 37.508111,23.628967 37.241049,24.452249 C 35.918604,28.529012 31.988159,41.309887 31.988159,41.533398 C 31.988159,41.689434 32.165857,41.823410 32.383044,41.831118 C 33.038920,41.854391 33.823559,42.078534 37.702398,43.350719 C 39.746518,44.021143 42.276112,44.827244 43.323721,45.142062 C 46.708664,46.159257 52.927122,48.195041 53.404943,48.442430 C 54.181489,48.844480 54.380919,48.807684 54.377520,48.263002 z M 41.418977,40.819952 C 39.792951,40.332996 38.306108,39.441125 38.306804,38.953149 C 38.307059,38.774763 38.402687,38.273004 38.519314,37.838130 L 38.731363,37.047447 L 39.238940,37.503168 C 40.010876,38.196244 41.415634,38.764534 42.348122,38.760989 C 43.866106,38.755220 45.110186,37.520452 45.624259,35.509393 C 45.911285,34.386536 45.846669,34.131180 45.390993,34.587528 C 44.802914,35.176483 42.658828,35.288209 41.680998,34.780855 C 40.117110,33.969424 39.390345,32.771326 39.390345,31.004639 C 39.390345,29.417741 40.030473,28.044748 41.161483,27.205789 C 41.935067,26.631957 44.375355,26.562409 45.266143,27.088809 C 47.365572,28.329439 48.219677,31.480215 47.541353,35.482010 C 47.223450,37.357460 46.142313,39.252010 44.868923,40.165065 C 44.129160,40.695495 42.216032,41.058656 41.418977,40.819952 z M 44.373113,33.493730 C 45.478553,33.016797 46.060893,31.641259 45.821388,30.072774 C 45.605945,28.661891 44.462090,27.810722 43.053486,28.013113 C 42.005785,28.163649 41.335660,28.925189 41.094072,30.239823 C 40.910231,31.240235 41.022771,31.783106 41.590179,32.632901 C 41.974717,33.208822 42.414083,33.448974 43.602468,33.732795 C 43.679120,33.751105 44.025909,33.643527 44.373113,33.493730 z M 34.133390,32.460166 L 36.958514,23.657701 L 36.354854,23.588854 C 35.623664,23.505465 31.875466,22.880878 27.513096,22.115493 L 24.292381,21.550413 L 20.823255,26.939421 C 18.915235,29.903374 16.810580,33.142203 16.146239,34.136818 C 15.439538,35.194858 14.996180,36.004802 15.077724,36.088836 C 15.154379,36.167837 16.325100,36.562899 17.679328,36.966752 C 19.033556,37.370606 22.545725,38.486198 25.484144,39.445852 C 28.422565,40.405506 30.935074,41.206862 31.067496,41.226651 C 31.268226,41.256638 31.778094,39.798743 34.133390,32.460166 z M 16.849090,32.069564 C 18.053305,30.187745 20.069911,27.088583 21.330437,25.182536 C 22.590964,23.276492 23.623103,21.623431 23.624080,21.509067 C 23.625056,21.394707 23.322722,21.294234 22.952225,21.285792 C 22.581730,21.277354 20.313455,20.929313 17.911614,20.512369 L 13.544635,19.754288 L 9.1776537,24.367456 C 6.7758155,26.904699 4.2253137,29.580991 3.5098709,30.314782 C 2.7944282,31.048565 2.1787005,31.725577 2.1415855,31.819249 C 2.1044704,31.912920 4.3831986,32.716128 7.2054252,33.604153 C 10.027652,34.492167 12.775767,35.369761 13.312349,35.554350 C 13.848928,35.738942 14.371572,35.800215 14.473779,35.690512 C 14.575986,35.580805 15.644874,33.951379 16.849090,32.069564 z M 48.067209,14.389375 C 47.959878,14.183169 47.978663,14.096788 48.160123,13.962096 C 48.524181,13.691874 50.524596,13.919746 50.524596,14.231442 C 50.524596,14.591469 48.248539,14.737749 48.067209,14.389375 z M 45.093947,14.112255 C 44.986600,13.905922 45.005374,13.819528 45.186858,13.684673 C 45.549077,13.415521 47.458419,13.642070 47.458419,13.954200 C 47.458419,14.314229 45.274960,14.460188 45.093947,14.112255 z M 42.255207,13.833695 C 42.095127,13.636366 42.114435,13.578815 42.394581,13.418331 C 42.867926,13.147164 44.485158,13.347230 44.485158,13.676957 C 44.485158,14.019708 42.518258,14.157959 42.255207,13.833695 z M 36.633881,13.284510 C 36.387831,13.147691 36.528937,13.057211 37.213648,12.912758 C 38.146861,12.715877 38.526089,12.850588 38.290905,13.295428 C 38.149812,13.562293 37.121252,13.555519 36.633881,13.284510 z M 33.339769,13.010285 C 33.186092,12.830901 33.205663,12.770177 33.467525,12.613905 C 33.876254,12.369990 35.053016,12.412547 35.281646,12.679514 C 35.449144,12.875099 35.445713,12.904089 35.235188,13.072107 C 34.927244,13.317873 33.565223,13.273449 33.339769,13.010285 z M 27.667635,12.429365 C 27.487685,12.292735 27.751137,12.213008 28.410950,12.204410 C 29.059285,12.195961 29.365059,12.278219 29.247182,12.429365 C 29.020690,12.719773 28.050123,12.719773 27.667635,12.429365 z M 24.555001,12.176589 C 24.343799,11.997008 24.356447,11.962044 24.694372,11.791407 C 25.176886,11.547758 26.038418,11.578609 26.268941,11.847786 C 26.436439,12.043369 26.433011,12.072361 26.222486,12.240380 C 25.929957,12.473842 24.856294,12.432768 24.555001,12.176589 z M 36.006710,11.488942 C 36.096140,11.286379 36.169309,11.044254 36.169309,10.950886 C 36.169309,10.857519 35.573496,10.746515 34.845277,10.704208 C 34.040648,10.657459 33.521732,10.518524 33.522482,10.350042 C 33.524129,9.9814645 34.051504,9.4892136 34.682678,9.2671249 C 34.963745,9.1682245 35.737257,8.7894768 36.401595,8.4254694 C 37.905722,7.6013152 38.564645,7.3932502 38.632534,7.7210157 C 38.661477,7.8607539 38.475242,8.3846893 38.218676,8.8853223 C 37.719556,9.8592409 37.642117,10.211422 37.927086,10.211422 C 38.175097,10.211422 38.406708,10.505636 38.355047,10.755059 C 38.331316,10.869619 38.104654,10.903929 37.851350,10.831304 C 37.483839,10.725933 37.334904,10.818013 37.114138,11.287066 C 36.913289,11.713809 36.701383,11.872462 36.340796,11.866063 C 35.907834,11.858375 35.864970,11.809988 36.006710,11.488942 z M 37.000775,9.4490023 C 37.203928,9.0296725 37.371733,8.6100635 37.373672,8.5165389 C 37.375610,8.4230127 36.854553,8.6704677 36.215767,9.0664418 C 35.576979,9.4624100 35.054337,9.8820205 35.054337,9.9989070 C 35.054337,10.115790 35.409174,10.211422 35.842868,10.211422 C 36.551600,10.211422 36.668784,10.134262 37.000775,9.4490023 z M 24.555001,11.128223 C 24.142184,10.970046 24.019930,10.620751 24.249229,10.254587 C 24.368265,10.064491 24.875976,10.048592 25.769062,10.206985 C 26.633435,10.360290 27.268750,10.344812 27.556324,10.163441 C 28.207234,9.7529245 28.062044,9.2569952 27.262386,9.1594361 C 26.224729,9.0328427 26.566364,8.5484834 27.696347,8.5441786 C 28.724627,8.5402580 29.107808,8.3819741 29.107808,7.9611434 C 29.107808,7.8264427 28.624511,7.7162368 28.033810,7.7162368 C 27.341469,7.7162368 26.980217,7.6177130 27.017235,7.4389925 C 27.111617,6.9833130 29.897880,7.0775984 30.026724,7.5408298 C 30.184152,8.1068350 29.986904,8.4473345 29.373441,8.6685532 C 28.921273,8.8316086 28.855559,8.9289905 28.894889,9.3777505 C 28.944405,9.9427482 28.652608,10.274035 27.621176,10.823841 C 27.055275,11.125494 25.063837,11.323187 24.555001,11.128223 z M 44.578068,7.4389925 C 44.541000,7.2600180 44.917790,7.1617498 45.641100,7.1617498 C 46.326130,7.1617498 46.761559,7.2694918 46.761559,7.4389925 C 46.761559,7.8091099 44.654732,7.8091099 44.578068,7.4389925 z M 38.863828,7.1617498 C 38.769266,6.9794041 39.060531,6.8916305 39.769746,6.8887498 C 40.405608,6.8861705 40.815032,6.9930984 40.815032,7.1617498 C 40.815032,7.5225323 39.050927,7.5225323 38.863828,7.1617498 z M 27.455463,6.4038586 C 27.696487,6.3469541 28.114604,6.3463632 28.384607,6.4025468 C 28.654612,6.4587275 28.457408,6.5052868 27.946379,6.5060061 C 27.435348,6.5067270 27.214439,6.4607632 27.455463,6.4038586 z "
       id="path3767"
       style="stroke:#000000;stroke-linecap:round;stroke-linejoin:round;stroke-opacity:0.19889499" />
  </g>
</svg>
