<?xml version="1.0" encoding="UTF-8" standalone="no"?>
<!DOCTYPE svg PUBLIC "-//W3C//DTD SVG 20010904//EN"
"http://www.w3.org/TR/2001/REC-SVG-20010904/DTD/svg10.dtd">
<!-- Created with Inkscape (http://www.inkscape.org/) -->
<svg
   width="64pt"
   height="64pt"
   id="svg1105"
   sodipodi:version="0.32"
   inkscape:version="0.40"
   sodipodi:docbase="/home/tom/Desktop/Projects/gnome-sudoku/images"
   sodipodi:docname="Winner.svg"
   inkscape:export-filename="/home/tom/Desktop/Projects/gnome-sudoku/images/Winner.png"
   inkscape:export-xdpi="142.75337"
   inkscape:export-ydpi="142.75337"
   xmlns="http://www.w3.org/2000/svg"
   xmlns:cc="http://web.resource.org/cc/"
   xmlns:inkscape="http://www.inkscape.org/namespaces/inkscape"
   xmlns:sodipodi="http://sodipodi.sourceforge.net/DTD/sodipodi-0.dtd"
   xmlns:rdf="http://www.w3.org/1999/02/22-rdf-syntax-ns#"
   xmlns:dc="http://purl.org/dc/elements/1.1/"
   xmlns:xlink="http://www.w3.org/1999/xlink">
  <defs
     id="defs3">
    <linearGradient
       inkscape:collect="always"
       id="linearGradient3236">
      <stop
         style="stop-color:#000000;stop-opacity:1;"
         offset="0"
         id="stop3237" />
      <stop
         style="stop-color:#000000;stop-opacity:0;"
         offset="1"
         id="stop3238" />
    </linearGradient>
    <linearGradient
       inkscape:collect="always"
       xlink:href="#linearGradient3236"
       id="linearGradient3239"
       gradientTransform="scale(0.887316,1.126994)"
       x1="-0.67626807"
       y1="232.13457"
       x2="464.52628"
       y2="232.13457"
       gradientUnits="userSpaceOnUse" />
  </defs>
  <sodipodi:namedview
     id="base"
     pagecolor="#ffffff"
     bordercolor="#666666"
     borderopacity="1.0"
     inkscape:pageopacity="0.0"
     inkscape:pageshadow="2"
     inkscape:zoom="6.2954600"
     inkscape:cx="70.482950"
     inkscape:cy="35.823148"
     inkscape:current-layer="svg1105"
     showgrid="true"
     inkscape:grid-bbox="true"
     gridspacingy="1.0000000pt"
     gridspacingx="1.0000000pt"
     gridoriginy="0.0000000pt"
     gridoriginx="0.0000000pt"
     inkscape:window-width="1024"
     inkscape:window-height="696"
     inkscape:window-x="0"
     inkscape:window-y="25" />
  <metadata
     id="metadata4">
    <rdf:RDF
       id="RDF5">
      <cc:Work
         rdf:about=""
         id="Work6">
        <dc:format
           id="format7">image/svg+xml</dc:format>
        <dc:type
           id="type9"
           rdf:resource="http://purl.org/dc/dcmitype/StillImage" />
      </cc:Work>
    </rdf:RDF>
  </metadata>
  <g
     id="layer1"
     inkscape:label="Layer 1"
     inkscape:groupmode="layer" />
  <path
     style="fill:#000000;fill-opacity:1.0000000;fill-rule:evenodd;stroke:#000000;stroke-width:0.35633283pt;stroke-linecap:round;stroke-linejoin:round;stroke-opacity:1.0000000"
     d="M 32.003463,74.757934 C 35.323036,69.816464 44.412447,62.383135 44.071148,56.457143 C 44.418984,56.699212 38.111062,47.865353 40.151448,40.649845 C 40.775787,37.219407 34.927290,25.321210 58.809823,28.003682 C 58.809823,22.160144 62.557951,17.620436 62.557951,11.776899 C 60.950583,12.558536 60.219091,12.568833 57.173614,12.273456 C 54.943724,12.057182 58.350626,15.527932 57.445259,17.573171 C 56.841680,18.741878 56.833770,21.839151 56.230192,23.007858 C 55.093586,24.978091 51.174954,22.000751 43.072519,22.331615 C 42.729737,26.023567 34.049481,26.074327 34.535567,21.188341 C 34.710709,19.427889 27.960463,16.418618 26.149729,14.665557 C 27.455308,6.4540882 35.742724,6.2551096 34.902926,5.4172664 C 32.386228,5.0833203 31.774874,3.5619820 30.507336,1.4727078 C 27.482879,1.6441785 22.017840,10.479427 22.044110,13.998266 C 20.823819,17.320204 29.008243,21.156549 30.914100,25.463005 C 31.219172,26.199754 32.846228,34.812665 30.100573,40.373563 C 29.631524,41.867777 18.891692,45.429486 18.219261,49.237322 C 19.432984,52.311486 15.358781,63.754073 20.029995,70.274059 C 22.444307,69.105352 25.265381,69.708779 27.272930,66.767935 C 27.272930,66.767935 23.467783,53.216630 24.668372,51.365117 C 28.919688,45.870879 32.705131,47.484261 32.705131,47.484261 C 33.912286,46.356781 37.560026,56.059021 36.326599,59.755691 C 34.515865,61.508752 32.705131,63.261813 30.894397,65.014874 C 30.290819,65.599229 28.466951,67.168102 29.083664,66.964840 C 28.226494,69.431268 31.030197,72.094601 32.003463,74.757934 z "
     id="path2582"
     sodipodi:nodetypes="cccccscccsccccccccccccccc" />
  <g
     id="g1233"
     transform="matrix(-1.654874e-2,-2.193701e-2,-2.193701e-2,1.654874e-2,43.03675,71.06924)"
     style="fill:#ffffff;fill-opacity:1.0000000;stroke:#000000;stroke-width:14.496960;stroke-miterlimit:4.0000000;stroke-opacity:1.0000000">
    <path
       d="M 257.87400,274.39400 C 337.04000,266.06100 323.74300,143.26200 259.95700,109.81100 C 217.69800,87.649000 160.64600,88.617000 122.45700,103.56100 C 50.020000,131.90600 30.791000,168.14400 20.374000,238.97800 C 9.9570000,309.81200 44.860000,497.18200 128.70700,518.14400 C 203.70700,536.89400 232.65100,500.53700 224.54000,466.06100 C 216.20700,430.64400 175.13200,384.76600 172.45700,353.56100 C 166.20700,280.64400 257.87400,274.39400 257.87400,274.39400 z "
       id="path1234" />
    <path
       d="M 398.93500,101.50400 C 377.72800,132.30400 337.48900,141.40300 309.05900,121.82800 C 280.62800,102.25300 274.77200,61.416000 295.97900,30.616000 C 317.18600,-0.18400000 357.42400,-9.2820000 385.85500,10.293000 C 414.28400,29.868000 420.14100,70.705000 398.93500,101.50400 z "
       id="path1235" />
    <path
       d="M 235.45400,82.105000 C 217.30500,85.195000 200.16600,73.450000 197.17200,55.869000 C 194.17700,38.288000 205.76300,11.863000 223.91100,8.7730000 C 242.05900,5.6810000 259.19900,17.428000 262.19300,35.009000 C 265.18700,52.590000 253.60100,79.014000 235.45400,82.105000 z "
       id="path1236" />
    <path
       d="M 176.59900,69.410000 C 166.32300,83.986000 151.26500,86.791000 136.21900,76.184000 C 121.17300,65.577000 117.63400,35.326000 127.91000,20.749000 C 138.18600,6.1740000 153.24300,3.3690000 168.29000,13.976000 C 183.33600,24.583000 186.87500,54.834000 176.59900,69.410000 z "
       id="path1237" />
    <path
       d="M 113.75100,80.360000 C 110.59400,95.569000 94.793000,105.15000 78.457000,101.75900 C 62.121000,98.368000 48.841000,75.304000 51.998000,60.095000 C 55.155000,44.886000 70.956000,35.305000 87.291000,38.696000 C 103.62600,42.087000 116.90800,65.151000 113.75100,80.360000 z "
       id="path1238" />
    <path
       d="M 47.389000,102.13800 C 56.680000,115.99500 54.914000,133.46200 43.446000,141.15100 C 31.978000,148.83900 15.150000,143.83900 5.8590000,129.98100 C -3.4310000,116.12400 -1.6650000,98.657000 9.8030000,90.969000 C 21.271000,83.281000 38.099000,88.281000 47.389000,102.13800 z "
       id="path1239" />
  </g>
  <flowRoot
     id="flowRoot1249"
     transform="matrix(1.448587,0.000000,0.000000,1.448587,3.014130,-0.560734)">
    <flowRegion
       id="flowRegion1250">
      <path
         style="fill:#000000;fill-opacity:1.0000000;fill-rule:evenodd;stroke:none;stroke-width:0.25000000pt;stroke-linecap:butt;stroke-linejoin:miter;stroke-opacity:1.0000000"
         d="M -2.4062500,16.250000 L -2.4687500,16.281250 C -6.6354170,20.447917 -10.802083,24.614583 -14.968750,28.781250 L -15.000000,28.843750 L -15.000000,28.906250 C -14.134930,40.218114 -13.271320,51.531885 -12.406250,62.843750 L -12.093750,62.843750 C -0.78001300,62.843750 -16.844971,39.162800 -14.687500,29.000000 C -13.572248,23.746586 -6.4166670,20.729167 -2.2812500,16.593750 C 0.12415500,16.994651 2.5320950,17.380349 4.9375000,17.781250 C 3.7130160,21.862863 2.5057340,25.949637 1.2812500,30.031250 C -1.6354170,32.947917 -4.5520830,35.864583 -7.4687500,38.781250 L -7.5312500,38.843750 L -7.5000000,38.937500 C -6.6715690,42.251225 -5.8284310,45.561275 -5.0000000,48.875000 C -4.9950980,48.894608 -5.0049020,48.917892 -5.0000000,48.937500 C -6.2447120,53.501442 -7.5052880,58.061058 -8.7500000,62.625000 L -8.4375000,62.687500 C -3.7790250,63.619195 -5.9375000,53.520833 -4.6875000,48.937500 L -4.6875000,48.906250 L -4.6875000,48.875000 C -5.5128670,45.573530 -8.0959110,41.781335 -7.1562500,38.968750 C -6.0254440,35.584031 -1.3645840,33.177084 1.5312500,30.281250 L 1.5312500,30.250000 L 1.5625000,30.187500 C 3.5079360,26.296627 4.0625000,21.854167 5.3125000,17.687500 L 5.3437500,17.531250 L 5.1875000,17.500000 C 2.7022340,17.002947 0.18750000,16.666667 -2.3125000,16.250000 L -2.4062500,16.250000 z "
         id="use1251"
         sodipodi:nodetypes="ccccccsscccccccccscccsccsccscc" />
    </flowRegion>
    <flowDiv
       id="flowDiv1252">
      <flowPara
         id="flowPara1253">This is flowed text. Currently, you can only edit it by using the XML editor. You can paste style (Ctrl+Shift+V) from regular text objects to it.</flowPara>
    </flowDiv>
  </flowRoot>
  <g
     id="g2566"
     transform="matrix(1.448587,0.000000,0.000000,1.448587,3.014130,-0.560734)" />
  <path
     sodipodi:type="arc"
     style="color:#000000;fill:#000000;fill-opacity:1.0000000;fill-rule:nonzero;stroke:none;stroke-width:1.2299556;stroke-linecap:butt;stroke-linejoin:miter;stroke-miterlimit:4.0000000;stroke-dashoffset:0.0000000;stroke-opacity:0.0000000;marker:none;marker-start:none;marker-mid:none;marker-end:none;visibility:visible;display:block"
     id="path2584"
     sodipodi:cx="24.429625"
     sodipodi:cy="8.5363283"
     sodipodi:rx="3.0888031"
     sodipodi:ry="4.4058485"
     d="M 27.518428 8.5363283 A 3.0888031 4.4058485 0 1 1  21.340822,8.5363283 A 3.0888031 4.4058485 0 1 1  27.518428 8.5363283 z"
     transform="matrix(1.384226,0.000000,0.000000,1.384853,5.459487,5.529891)" />
  <path
     d="M 26.245699,69.075433 C 28.217083,68.127569 26.737190,65.073073 24.777291,64.797499 C 23.478832,64.614920 22.011536,65.167668 21.161601,65.907580 C 19.549434,67.311025 19.387056,68.426560 19.772688,70.355776 C 20.158320,72.284993 22.794527,76.810451 25.157997,76.577313 C 27.272088,76.368768 27.684745,75.160296 27.155984,74.343235 C 26.612775,73.503878 25.125591,72.696684 24.767744,71.913981 C 23.931579,70.085026 26.245699,69.075433 26.245699,69.075433 z "
     id="path2586"
     style="fill:#ffffff;fill-opacity:1.0000000;fill-rule:nonzero;stroke:#000413;stroke-width:0.39836141;stroke-miterlimit:4.0000000;stroke-opacity:1.0000000" />
  <path
     d="M 28.296581,63.297078 C 28.032723,64.290197 27.075680,64.897828 26.158981,64.654277 C 25.242256,64.410736 24.713009,63.408223 24.976867,62.415104 C 25.240724,61.421985 26.197751,60.814390 27.114476,61.057931 C 28.031149,61.301490 28.560423,62.303994 28.296581,63.297078 z "
     id="path2587"
     style="fill:#ffffff;fill-opacity:1.0000000;fill-rule:nonzero;stroke:#000413;stroke-width:0.39836141;stroke-miterlimit:4.0000000;stroke-opacity:1.0000000" />
  <path
     d="M 23.886998,64.307232 C 23.445964,64.555056 22.893849,64.409675 22.653763,63.982451 C 22.413651,63.555236 22.469027,62.764312 22.910035,62.516497 C 23.351024,62.268630 23.903184,62.414054 24.143270,62.841278 C 24.383356,63.268502 24.327971,64.059401 23.886998,64.307232 z "
     id="path2588"
     style="fill:#ffffff;fill-opacity:1.0000000;fill-rule:nonzero;stroke:#000000;stroke-width:0.39836141;stroke-miterlimit:4.0000000;stroke-opacity:1.0000000" />
  <path
     d="M 22.246673,64.523121 C 22.115597,64.995329 21.751909,65.207189 21.264477,65.071895 C 20.777045,64.936601 20.405665,64.186575 20.536733,63.714341 C 20.667818,63.242158 21.031481,63.030307 21.518939,63.165592 C 22.006370,63.300886 22.377750,64.050912 22.246673,64.523121 z "
     id="path2589"
     style="fill:#ffffff;fill-opacity:1.0000000;fill-rule:nonzero;stroke:#000000;stroke-width:0.39836141;stroke-miterlimit:4.0000000;stroke-opacity:1.0000000" />
  <path
     d="M 20.721732,65.387768 C 20.780718,65.810509 20.460478,66.204573 20.006411,66.267929 C 19.552344,66.331285 18.995388,65.857325 18.936401,65.434584 C 18.877415,65.011843 19.197655,64.617779 19.651696,64.554433 C 20.105737,64.491086 20.662745,64.965027 20.721732,65.387768 z "
     id="path2590"
     style="fill:#ffffff;fill-opacity:1.0000000;fill-rule:nonzero;stroke:#000000;stroke-width:0.39836141;stroke-miterlimit:4.0000000;stroke-opacity:1.0000000" />
  <path
     d="M 19.206017,66.565098 C 19.574596,66.837718 19.690461,67.306020 19.464839,67.611050 C 19.239209,67.916054 18.757529,67.942327 18.388940,67.669681 C 18.020387,67.397052 17.904523,66.928750 18.130153,66.623746 C 18.355783,66.318742 18.837463,66.292469 19.206017,66.565098 z "
     id="path2591"
     style="fill:#ffffff;fill-opacity:1.0000000;fill-rule:nonzero;stroke:#000000;stroke-width:0.39836141;stroke-miterlimit:4.0000000;stroke-opacity:1.0000000" />
  <path
     style="fill:none;fill-opacity:0.75000000;fill-rule:evenodd;stroke:#000000;stroke-width:0.25000000pt;stroke-linecap:butt;stroke-linejoin:miter;stroke-opacity:1.0000000"
     d="M 30.577591,1.3719093 C 32.581209,2.2503466 34.635981,1.0288843 35.000000,5.7942231"
     id="path1708"
     sodipodi:nodetypes="cc" />
  <path
     style="fill:none;fill-opacity:0.75000000;fill-rule:evenodd;stroke:#000000;stroke-width:0.25000000pt;stroke-linecap:butt;stroke-linejoin:miter;stroke-opacity:1.0000000"
     d="M 56.561308,12.463990 C 56.182256,10.562646 63.498757,9.1426282 62.671441,11.823132"
     id="path1713"
     sodipodi:nodetypes="cc" />
</svg>
